<svg xmlns="http://www.w3.org/2000/svg" width="346" height="346" viewBox="0 0 256 256"><path fill="#e8ebfa" d="M0 256V0h256v256z" font-family="none" font-size="none" font-weight="none" style="mix-blend-mode:normal" text-anchor="none"/><g fill="#312e81" stroke-miterlimit="10" font-family="none" font-size="none" font-weight="none" style="mix-blend-mode:normal" text-anchor="none"><path d="M148.623 72.767c0 12.282.37 24.12.74 26.266 3.034 16.351 18.423 27.376 34.849 25.082 12.651-1.776 23.454-12.134 25.747-24.712.444-2.59.814-13.836.814-26.636v-22.27l-10.21 10.21-10.136 10.137H168.97l-10.136-10.137-10.21-10.21zm21.53 14.946c3.626 2.96 1.11 9.026-3.773 9.026-2.515 0-4.66-2.367-4.66-5.179 0-4.513 4.808-6.733 8.434-3.847m25.896 0c3.625 2.96 1.11 9.026-3.774 9.026-2.515 0-4.661-2.367-4.661-5.179 0-4.513 4.81-6.733 8.435-3.847"/><path d="M51.33 72.027c-3.404 1.776-4.736 3.256-5.698 6.363-1.776 6.067 2.442 12.134 9.175 12.948 3.92.518 6.288 1.702 8.73 4.291l1.85 1.998.37 45.947.37 46.02 2.071 4.292c1.406 2.811 3.256 5.105 5.475 6.806 6.067 4.662 7.4 4.81 41.064 4.81h30.26l1.925-1.924c1.701-1.702 1.85-2.294 1.553-6.807-.444-8.952-4.217-11.986-14.723-11.986h-6.067l20.642-15.463 20.643-15.538.37 24.49.37 24.416 1.776 1.406c1.405 1.184 2.96 1.406 8.36 1.406 5.993 0 6.733-.148 8.36-1.85l1.85-1.776v-68.143l-3.107.518c-4.661.814-12.948.592-17.61-.518-6.584-1.48-12.503-5.03-18.57-11.098-5.845-5.77-8.139-9.396-10.358-16.277l-1.258-4.07-5.105.148c-16.574.592-34.109 9.767-44.32 23.233l-2.885 3.699-.37-17.24-.37-17.238-2.663-5.55c-4.587-9.618-12.504-15.759-22.788-17.757-5.328-.961-6.733-.961-9.323.444"/></g></svg>