<svg xmlns="http://www.w3.org/2000/svg" width="800" height="800" viewBox="0 0 256 256"><defs xmlns="http://www.w3.org/2000/svg"><linearGradient id="a" x1="50%" x2="50%" y1="0%" y2="100%" gradientTransform="rotate(135 .5 .5)"><stop offset="0%" stop-color="hsl(300, 60%, 64%)"/><stop offset="100%" stop-color="hsl(218, 68%, 57%)"/></linearGradient></defs><g xmlns="http://www.w3.org/2000/svg" stroke-miterlimit="10" font-family="none" font-size="none" font-weight="none" text-anchor="none"><path fill="#f4f1fa" d="M12.944 271.82c-15.886 0-28.764-12.878-28.764-28.764V12.944c0-15.886 12.878-28.764 28.764-28.764h230.112c15.886 0 28.764 12.878 28.764 28.764v230.112c0 15.886-12.878 28.764-28.764 28.764z" style="mix-blend-mode:normal" transform="matrix(.89 0 0 .89 14.08 14.08)"/><path fill="none" stroke="url(#a)" stroke-linecap="round" stroke-linejoin="round" stroke-width="18" d="M209.202 314c85.867-11.882 144.591-95.582 98.843-178.976-56.532-103.04-246.218-28.586-231.201 84.347 9.852 74.073 136.253 96.197 157.668 17.486 3.785-13.921 2.202-79.036-16.371-83.689-1.735-.438-23.939 22.657-33.724 22.657-7.686 0-24.801-37.866-42.933 0" style="mix-blend-mode:normal" transform="translate(14.08 14.08)scale(.5696)"/></g></svg>