<svg xmlns:inkscape="http://www.inkscape.org/namespaces/inkscape" xmlns:sodipodi="http://sodipodi.sourceforge.net/DTD/sodipodi-0.dtd" xmlns="http://www.w3.org/2000/svg" xmlns:svg="http://www.w3.org/2000/svg" version="1.1" id="svg2" xml:space="preserve" width="400" height="500" viewBox="0 0 400 500" sodipodi:docname="csu.svg" inkscape:version="1.1 (c68e22c387, 2021-05-23)"><defs id="defs6"/><g id="g8" inkscape:groupmode="layer" inkscape:label="csu" transform="matrix(1.3333333,0,0,-1.3333333,-208,800.5197)"><path d="m 301.7149,580.4484 c -66.627,0 -120.6553,-54.0193 -120.6553,-120.5926 0,-66.6352 54.0283,-120.6578 120.6578,-120.6578 66.6431,0 120.6618,54.0226 120.6618,120.6578 0,66.5733 -54.0187,120.5926 -120.6643,120.5926 z m 0.008,-238.4388 c -65.0829,0 -117.8507,52.7599 -117.8507,117.8462 0,65.0205 52.7678,117.7772 117.8507,117.7772 65.0857,0 117.8498,-52.7567 117.8498,-117.7772 0,-65.0863 -52.7641,-117.8462 -117.8498,-117.8462" style="fill:#006dad;fill-opacity:1;fill-rule:evenodd;stroke:none" id="path12"/><path d="m 301.7169,576.4093 c -64.4018,0 -116.6236,-52.1878 -116.6236,-116.5436 0,-64.4142 52.2218,-116.6309 116.6236,-116.6309 64.421,0 116.6357,52.2167 116.6357,116.6309 0,64.3558 -52.2147,116.5436 -116.6357,116.5436 z m 0,-232.4216 c -63.9865,0 -115.869,51.8802 -115.869,115.8769 0,63.9397 51.8825,115.7907 115.869,115.7907 64.0062,0 115.8808,-51.851 115.8808,-115.7907 0,-63.9967 -51.8746,-115.8769 -115.8808,-115.8769" style="fill:#006dad;fill-opacity:1;fill-rule:evenodd;stroke:none" id="path14"/><path d="m 261.4365,363.1431 c -0.9785,1.1979 -1.2206,1.5185 -0.4765,1.8612 0.7399,0.335 3.3639,-0.0363 2.6448,2.1379 -0.491,1.0278 -2.3072,1.9187 -3.3602,1.9811 0.9388,1.3952 2.2031,2.8656 1.0814,4.3957 -1.3252,1.7966 -1.4448,0.6333 -1.8116,0.007 -0.3609,-0.6299 -2.2272,-3.6003 -2.3423,-3.93 -0.5068,-0.002 -2.8831,-0.0816 -3.7352,-0.4697 -0.8467,-0.3852 -1.4723,-0.3897 -1.5415,0.1599 -0.0471,0.377 -0.0505,2.5957 -1.4343,-0.0403 -1.4502,-2.8275 0.3254,-4.6678 1.0905,-3.3565 0.7613,1.3218 0.6256,1.476 1.2849,1.6742 0.6622,0.2021 3.8784,1.0491 2.9917,-0.3419 -0.7523,-1.6974 -1.1333,-1.5443 -1.7623,-1.6891 -0.6262,-0.1483 -1.7833,-0.5752 -0.1993,-1.8661 -0.0983,-0.1601 -2.052,-3.4693 -2.4273,-4.1275 -0.3155,-0.5315 -0.373,-2.5682 1.1673,-1.662 0.2721,0.2138 0.5131,0.6449 0.9065,1.2209 2.3123,3.5669 2.3035,4.8283 3.5762,4.3418 2.5926,-1.5086 5.2759,-2.0437 4.3472,-0.2967 z m -2.2385,2.9069 c 0,0 -0.5023,-0.057 -0.7086,0.464 -0.038,1.2722 1.4113,1.0897 1.4113,1.0897 0.9939,-0.1798 1.9514,-1.2138 -0.7027,-1.5537" style="fill:#006dad;fill-opacity:1;fill-rule:evenodd;stroke:none" id="path16"/><path d="m 287.9921,363.9246 c 0.2321,1.1951 -0.2951,2.2481 -1.577,0.4118 0,0 -0.2196,-0.6403 -0.947,-0.4297 -0.7291,0.2188 -3.5527,1.3796 -2.6294,-0.9309 0.3129,-0.6647 1.5355,-0.7424 1.9516,-0.8453 0.4181,-0.1046 1.2821,-0.4569 9e-4,-1.5035 -0.5298,-0.4272 -1.3439,-1.3615 -2.0747,-2.0616 -1.3167,-0.9159 -1.9012,-1.7416 -1.1696,-2.0917 1.198,-0.2568 2.5569,0.5363 4.7832,4.0241 0,0 0.8354,1.5803 2.1101,1.3643 1.2393,-0.0967 3.9504,0.1275 3.045,1.4397 -0.5306,0.3444 -1.4468,0.2081 -1.8241,0.0539 -0.375,-0.1426 -1.5301,-0.1268 -1.669,0.5689" style="fill:#006dad;fill-opacity:1;fill-rule:evenodd;stroke:none" id="path18"/><path d="m 280.0905,356.4403 c 0.1454,0.6582 -0.1196,3.6447 -1.5698,0.8078 -1.4553,-2.8445 -1.3944,-3.8466 -0.9426,-4.7608 0.4547,-0.9136 1.6461,-1.5468 1.9985,0.0346 0.3634,1.5812 0.358,3.2565 0.5139,3.9184" style="fill:#006dad;fill-opacity:1;fill-rule:evenodd;stroke:none" id="path20"/><path d="m 283.6157,355.0876 c 0.1063,0.2097 0.449,0.2735 0.6103,0.3668 0.6264,0.3798 0.5794,0.9567 -0.7762,0.9878 -1.654,-0.2145 -1.5775,-1.4201 -0.8762,-1.3529 0,0 0.9012,-0.1851 0.3501,-0.6344 -0.5581,-0.4587 -0.4836,-0.9888 1.0596,-1.228 0,0 1.5398,-0.5499 -0.2392,-0.9618 0,0 -0.9,-0.0578 -1.3635,-0.0145 -0.4694,0.0497 -1.2339,-0.699 -0.0363,-0.9646 1.1934,-0.2568 1.8028,-0.1709 1.5469,-1.1809 -1.1251,-3.3973 0.4586,-3.4163 0.8645,-1.7427 0,0 0.2934,1.7285 0.5123,2.3655 0.2304,0.6451 0.7724,0.894 1.2427,0.6086 1.415,-0.7719 2.9112,0.7336 0.7682,1.3059 0,0 -1.5903,0.396 -0.5015,0.5766 1.4139,0.1065 2.2672,0.7613 0.9159,1.2325 0,0 -1.2081,0.371 0.0779,1.3031 0.7373,0.5113 -0.341,0.3977 -0.3594,0.854 -0.07,0.3181 0.4836,0.296 0.8629,0.3385 0.3934,0.0459 6.4797,0.6962 5.0692,-2.541 -1.268,-3.2414 -1.9854,-4.394 -2.4823,-5.195 -0.4899,-0.4695 -1.1464,-1.5758 -1.6657,-0.404 -0.7537,1.1943 -1.4306,0.2155 -0.7361,-1.1622 0.9329,-1.1996 1.4919,-1.7566 2.7819,-0.5122 1.3031,1.2413 4.0093,6.2991 4.4135,8.7894 0.2155,0.8521 -0.2347,2.0046 -1.7339,2.3405 -1.1931,0.1506 -5.0196,0.2365 -6.442,-0.1417 -1.4205,-0.3747 -1.2875,-0.6528 -1.0188,-1.2095 -0.0666,-0.8476 -0.8152,-1.7927 -1.4905,-2.0268 -0.5419,-0.1984 -1.6333,-0.6423 -1.3543,0.203" style="fill:#006dad;fill-opacity:1;fill-rule:evenodd;stroke:none" id="path22"/><path d="m 315.6911,362.4715 c -0.0913,0.6324 -2.0084,3.4039 -2.4718,1.4655 0.3404,-1.9581 0.7733,-5.0921 0.8645,-5.6894 0.0939,-0.597 0.3059,-1.1075 -0.5757,-1.5826 -0.8807,-0.4765 -6.0463,-1.635 -5.1843,-3.0634 1.2935,-1.1035 2.3593,-0.2939 2.8542,0.027 0.5015,0.3081 2.9682,2.2093 2.6811,0.5031 -0.7575,-1.5417 -2.2601,-3.7139 -2.5597,-4.2366 -0.2923,-0.5137 -0.2948,-2.0501 1.6976,-0.6291 1.9817,1.5007 2.6241,4.2418 2.4877,5.1455 -0.1312,0.8716 0.2251,1.6602 1.0418,1.8587 1.1171,0.2693 5.4201,0.4093 5.4172,2.6631 -0.1281,1.0667 -0.8458,0.8841 -2.0695,0.1931 -1.2215,-0.6928 -3.9368,-1.6141 -4.1052,-0.5193 -0.2171,1.3983 -0.0779,3.8644 -0.0779,3.8644" style="fill:#006dad;fill-opacity:1;fill-rule:evenodd;stroke:none" id="path24"/><path d="m 319.451,352.4907 c 0.6749,-0.6658 3.446,-4.1368 4.7474,-3.7012 1.2935,0.4374 1.385,2.2876 -0.6449,3.3364 -2.0242,1.0576 -4.4268,2.3035 -4.5924,1.6336 -0.1746,-0.6769 0.2461,-1.0312 0.4899,-1.2688" style="fill:#006dad;fill-opacity:1;fill-rule:evenodd;stroke:none" id="path26"/><path d="m 204.1792,433.7416 0.0406,2.8006 c 1.5426,0.0369 2.7969,-0.2962 3.7624,-0.9995 0.9661,-0.7024 1.6605,-1.7549 2.0821,-3.1558 0.5218,-1.7336 0.358,-3.3361 -0.4907,-4.8087 -0.8479,-1.4723 -2.3001,-2.5166 -4.3535,-3.1351 -2.1722,-0.6539 -4.0283,-0.6006 -5.5686,0.1588 -1.539,0.7596 -2.5847,2.0542 -3.1346,3.8826 -0.4802,1.5956 -0.3997,3.0362 0.2446,4.3171 0.3799,0.762 1.0472,1.4477 2.0022,2.0591 l 1.4085,-2.4213 c -0.6299,-0.3578 -1.0675,-0.8408 -1.3122,-1.4485 -0.2435,-0.6078 -0.2605,-1.2615 -0.0504,-1.9616 0.2914,-0.968 0.8745,-1.6478 1.7507,-2.0418 0.8761,-0.3943 2.0914,-0.3572 3.6462,0.1117 1.6506,0.4969 2.7365,1.1472 3.2587,1.9516 0.5218,0.8042 0.6395,1.6815 0.354,2.6312 -0.2106,0.6995 -0.6145,1.2359 -1.2126,1.6069 -0.5962,0.3702 -1.406,0.5219 -2.4274,0.4527" style="fill:#006dad;fill-opacity:1;fill-rule:evenodd;stroke:none" id="path28"/><path d="m 207.1655,443.0835 -13.5368,-1.6912 -1.2535,10.0378 2.2893,0.2857 0.9124,-7.3032 3.0017,0.3739 -0.849,6.7958 2.2804,0.2852 0.849,-6.7958 3.6845,0.4598 -0.9445,7.5631 2.2802,0.2851 z" style="fill:#006dad;fill-opacity:1;fill-rule:evenodd;stroke:none" id="path30"/><path d="m 205.655,458.8033 -13.6191,0.6148 0.1205,2.6748 9.3464,5.1639 -9.0947,0.411 0.1154,2.554 13.619,-0.6148 -0.125,-2.7587 -9.1284,-5.0896 8.8812,-0.4003 z" style="fill:#006dad;fill-opacity:1;fill-rule:evenodd;stroke:none" id="path32"/><path d="m 207.6191,478.5282 -11.0843,2.3689 -0.8462,-3.96 -2.2572,0.4838 2.266,10.6016 2.2572,-0.4819 -0.845,-3.9492 11.0855,-2.3689 z" style="fill:#006dad;fill-opacity:1;fill-rule:evenodd;stroke:none" id="path34"/><path d="m 210.4381,489.8137 -12.6836,5.0012 2.1254,5.3904 c 0.5349,1.3552 1.0375,2.2955 1.5069,2.8199 0.4697,0.5247 1.0693,0.8563 1.7966,0.9966 0.7291,0.1392 1.4681,0.0615 2.2173,-0.2344 0.9516,-0.3756 1.6276,-0.9655 2.027,-1.7688 0.3997,-0.8048 0.4601,-1.7958 0.1826,-2.9721 0.5411,0.426 1.0763,0.7435 1.6053,0.9518 0.5281,0.2087 1.4059,0.4241 2.6336,0.646 l 3.085,0.5735 -1.2076,-3.0628 -3.4903,-0.7631 c -1.2458,-0.2688 -2.0438,-0.4737 -2.3964,-0.6151 -0.3518,-0.1415 -0.629,-0.3286 -0.8311,-0.5616 -0.2018,-0.233 -0.419,-0.6443 -0.6511,-1.2322 l -0.2047,-0.5199 5.2943,-2.0871 z m -6.3096,5.4482 0.7469,1.895 c 0.4848,1.2274 0.7353,2.0151 0.7521,2.3621 0.017,0.3464 -0.0681,0.6571 -0.254,0.93 -0.1851,0.2733 -0.4677,0.4845 -0.849,0.6344 -0.4266,0.1687 -0.8158,0.1902 -1.1684,0.0658 -0.3524,-0.1242 -0.6449,-0.3801 -0.8779,-0.7685 -0.1109,-0.1958 -0.3702,-0.8141 -0.7804,-1.8513 l -0.7878,-1.9995 z" style="fill:#006dad;fill-opacity:1;fill-rule:evenodd;stroke:none" id="path36"/><path d="m 223.509,515.7354 -1.5681,-2.5551 -3.2656,0.606 -2.8533,-4.6505 2.0534,-2.5812 -1.5293,-2.4917 -8.8517,11.67 1.5236,2.4834 z m -7.2556,-1.5003 -5.3005,1.0459 3.3523,-4.2193 z" style="fill:#006dad;fill-opacity:1;fill-rule:evenodd;stroke:none" id="path38"/><path d="m 226.3822,519.3198 -10.2226,8.8521 1.8017,2.0806 8.4864,-7.3474 4.481,5.1735 1.737,-1.5035 z" style="fill:#006dad;fill-opacity:1;fill-rule:evenodd;stroke:none" id="path40"/><path d="m 246.2709,543.6581 2.1835,1.5749 c 0.5927,-0.6967 1.2084,-1.1015 1.8474,-1.218 0.6386,-0.1162 1.3198,0.0368 2.0437,0.4586 0.7662,0.4479 1.2481,0.946 1.4485,1.4973 0.1993,0.5502 0.173,1.0423 -0.0807,1.4771 -0.163,0.2784 -0.3827,0.4686 -0.6599,0.5684 -0.2781,0.1012 -0.6628,0.1037 -1.1535,0.0116 -0.3347,-0.066 -1.0703,-0.2645 -2.205,-0.5964 -1.461,-0.4272 -2.5824,-0.5616 -3.3659,-0.4011 -1.101,0.227 -1.925,0.8067 -2.4681,1.7393 -0.3495,0.6004 -0.5074,1.2612 -0.472,1.9814 0.0363,0.7223 0.2948,1.4063 0.7753,2.0532 0.4819,0.6463 1.1755,1.2336 2.0809,1.7617 1.4786,0.8623 2.7819,1.1872 3.907,0.9754 1.1259,-0.2132 2.0231,-0.8501 2.6921,-1.9103 l -2.3182,-1.4921 c -0.4555,0.5465 -0.9278,0.8549 -1.4176,0.9241 -0.4901,0.0708 -1.0693,-0.0904 -1.7391,-0.4808 -0.6919,-0.4028 -1.15,-0.8606 -1.3756,-1.3731 -0.1454,-0.3288 -0.1296,-0.6471 0.0484,-0.9516 0.163,-0.2789 0.4193,-0.4493 0.7708,-0.5094 0.4473,-0.0773 1.3289,0.0851 2.6464,0.4865 1.3173,0.4022 2.338,0.6188 3.0634,0.6497 0.7245,0.0317 1.3915,-0.1137 2.0004,-0.4371 0.6095,-0.3237 1.1305,-0.8584 1.5653,-1.6033 0.3935,-0.6752 0.5749,-1.4173 0.544,-2.2255 -0.0318,-0.809 -0.3073,-1.5565 -0.8258,-2.2436 -0.519,-0.6863 -1.2909,-1.3286 -2.3139,-1.9244 -1.4899,-0.8694 -2.8349,-1.1917 -4.0354,-0.9686 -1.2002,0.2228 -2.2615,0.9479 -3.1864,2.1761" style="fill:#006dad;fill-opacity:1;fill-rule:evenodd;stroke:none" id="path42"/><path d="m 260.1006,553.8747 c -0.4774,1.3031 -0.6829,2.4687 -0.6174,3.4957 0.0521,0.7577 0.235,1.4885 0.5476,2.1909 0.3135,0.7024 0.7246,1.2881 1.2314,1.7581 0.6732,0.6298 1.531,1.135 2.5727,1.5165 1.8854,0.6911 3.6074,0.6602 5.1684,-0.0941 1.5602,-0.7552 2.7216,-2.1739 3.4852,-4.2574 0.7566,-2.065 0.7878,-3.8863 0.093,-5.4652 -0.6953,-1.5783 -1.9825,-2.7119 -3.8616,-3.401 -1.9029,-0.697 -3.6289,-0.6712 -5.1772,0.078 -1.5477,0.7492 -2.6949,2.1421 -3.4421,4.1785 z m 2.6305,1.063 c 0.5304,-1.4493 1.2677,-2.4244 2.2102,-2.9267 0.9436,-0.5026 1.9304,-0.5656 2.9599,-0.1868 1.0304,0.3764 1.7391,1.0573 2.1283,2.0412 0.3878,0.9833 0.3098,2.217 -0.233,3.7009 -0.538,1.4672 -1.2609,2.4423 -2.1682,2.9282 -0.9069,0.4856 -1.893,0.5329 -2.958,0.144 -1.065,-0.3912 -1.7884,-1.0704 -2.1733,-2.0395 -0.3833,-0.9695 -0.3053,-2.1898 0.2341,-3.6613" style="fill:#006dad;fill-opacity:1;fill-rule:evenodd;stroke:none" id="path44"/><path d="m 277.5807,566.7917 2.7136,0.4691 1.258,-7.2797 c 0.1993,-1.1554 0.3631,-1.8983 0.4893,-2.2283 0.2114,-0.5303 0.5641,-0.9244 1.0584,-1.182 0.4944,-0.2577 1.1209,-0.3201 1.8791,-0.1891 0.7696,0.1329 1.3235,0.3898 1.6603,0.7727 0.3364,0.3821 0.5057,0.8093 0.5057,1.2816 0,0.4725 -0.0922,1.2404 -0.2756,2.304 l -1.2852,7.435 2.7142,0.4688 1.22,-7.0594 c 0.2781,-1.6138 0.402,-2.7669 0.3714,-3.458 -0.0321,-0.6913 -0.2058,-1.3008 -0.5205,-1.8272 -0.3152,-0.5269 -0.7792,-0.9828 -1.3924,-1.3686 -0.6131,-0.3863 -1.451,-0.6712 -2.514,-0.8555 -1.2838,-0.2213 -2.283,-0.2415 -2.9974,-0.0592 -0.7149,0.1806 -1.3047,0.4757 -1.7716,0.8821 -0.4669,0.4082 -0.8073,0.8609 -1.0188,1.3593 -0.3101,0.7398 -0.5953,1.8615 -0.8552,3.3653 z" style="fill:#006dad;fill-opacity:1;fill-rule:evenodd;stroke:none" id="path46"/><path d="m 299.6169,555.696 -0.0997,11.325 -4.0454,-0.0352 -0.0204,2.3052 10.8332,0.0952 0.0201,-2.3063 -4.0351,-0.0348 0.0989,-11.325 z" style="fill:#006dad;fill-opacity:1;fill-rule:evenodd;stroke:none" id="path48"/><path d="m 311.2509,555.4029 2.1243,13.4793 2.7218,-0.4297 -0.8365,-5.3042 5.3334,-0.8419 0.8362,5.3062 2.7207,-0.4298 -2.1246,-13.479 -2.7215,0.4289 0.9292,5.8932 -5.3331,0.8419 -0.9292,-5.8932 z" style="fill:#006dad;fill-opacity:1;fill-rule:evenodd;stroke:none" id="path50"/><path d="m 349.9529,558.2937 2.408,-1.3354 -3.5827,-6.4576 c -0.5689,-1.0242 -0.9074,-1.7056 -1.0162,-2.0413 -0.1673,-0.5448 -0.1389,-1.0726 0.0842,-1.584 0.2242,-0.5099 0.6726,-0.9513 1.3447,-1.3246 0.6832,-0.3784 1.2751,-0.5253 1.7771,-0.4382 0.5014,0.0864 0.9005,0.3138 1.197,0.6814 0.296,0.3674 0.7064,1.0228 1.2297,1.9661 l 3.6578,6.5951 2.4081,-1.3345 -3.4736,-6.2626 c -0.7946,-1.4312 -1.421,-2.4061 -1.8791,-2.9257 -0.4581,-0.5184 -0.9734,-0.8841 -1.5497,-1.097 -0.5746,-0.2126 -1.2223,-0.2769 -1.9417,-0.1941 -0.7203,0.0844 -1.5514,0.3875 -2.4948,0.911 -1.1384,0.6313 -1.9287,1.2424 -2.3706,1.8312 -0.4428,0.5899 -0.7186,1.1888 -0.8266,1.7989 -0.108,0.6094 -0.0887,1.1744 0.0584,1.6959 0.2217,0.7699 0.7024,1.8224 1.4423,3.1556 z" style="fill:#006dad;fill-opacity:1;fill-rule:evenodd;stroke:none" id="path52"/><path d="m 357.8278,537.7462 8.5836,10.5964 2.0812,-1.686 -1.3946,-10.5894 5.7319,7.0761 1.9882,-1.61 -8.5839,-10.5965 -2.1464,1.7393 1.3252,10.3697 -5.5973,-6.9103 z" style="fill:#006dad;fill-opacity:1;fill-rule:evenodd;stroke:none" id="path54"/><path d="m 370.3785,526.75 9.8861,9.385 1.895,-1.9959 -9.887,-9.3847 z" style="fill:#006dad;fill-opacity:1;fill-rule:evenodd;stroke:none" id="path56"/><path d="m 378.1409,517.7492 8.1008,12.0027 1.7686,-2.4063 -6.0883,-8.7565 10.1092,3.2859 1.7294,-2.3542 -13.8787,-4.1397 z" style="fill:#006dad;fill-opacity:1;fill-rule:evenodd;stroke:none" id="path58"/><path d="m 385.0254,507.5671 12.162,6.1526 4.5624,-9.0173 -2.058,-1.0403 -3.3196,6.5614 -2.696,-1.3638 3.0886,-6.1052 -2.0495,-1.0367 -3.088,6.1056 -3.3098,-1.6745 3.4373,-6.7938 -2.05,-1.0369 z" style="fill:#006dad;fill-opacity:1;fill-rule:evenodd;stroke:none" id="path60"/><path d="m 391.7353,493.293 13.0425,3.998 1.6993,-5.5432 c 0.4269,-1.3944 0.62,-2.4423 0.58,-3.1467 -0.0417,-0.7025 -0.3027,-1.3368 -0.7846,-1.8995 -0.4831,-0.5636 -1.1104,-0.9638 -1.8811,-1.1994 -0.9788,-0.3004 -1.8754,-0.2605 -2.6895,0.1197 -0.8141,0.3798 -1.4794,1.1162 -1.9959,2.2101 -0.1576,-0.6715 -0.3784,-1.2526 -0.6619,-1.7461 -0.2834,-0.4907 -0.8362,-1.2073 -1.6585,-2.1475 l -2.056,-2.3724 -0.9658,3.1502 2.2547,2.774 c 0.807,0.987 1.3048,1.6461 1.4919,1.9746 0.1879,0.3305 0.288,0.6503 0.3002,0.9584 0.0127,0.3084 -0.0743,0.7665 -0.2594,1.3714 l -0.1641,0.5335 -5.4445,-1.6691 z m 8.3338,-0.3274 0.5981,-1.9486 c 0.3861,-1.2625 0.6821,-2.035 0.885,-2.3176 0.2027,-0.2809 0.4624,-0.4711 0.7778,-0.5677 0.3155,-0.0987 0.6687,-0.0871 1.0605,0.0326 0.4385,0.1337 0.7566,0.3597 0.955,0.6769 0.1984,0.3172 0.2676,0.6998 0.2083,1.1491 -0.0365,0.2214 -0.218,0.8671 -0.5442,1.935 l -0.6307,2.0551 z" style="fill:#006dad;fill-opacity:1;fill-rule:evenodd;stroke:none" id="path62"/><path d="m 400.4484,478.3535 0.6041,-2.624 c -0.8708,-0.2752 -1.484,-0.6848 -1.8383,-1.2285 -0.3552,-0.5431 -0.4782,-1.2297 -0.3702,-2.0608 0.1142,-0.8799 0.3864,-1.5177 0.8167,-1.9154 0.4297,-0.3968 0.8949,-0.5644 1.3926,-0.4989 0.3201,0.0408 0.5794,0.171 0.7807,0.3872 0.1993,0.2172 0.3518,0.5698 0.4572,1.0596 0.0689,0.3334 0.1709,1.088 0.3064,2.2626 0.1718,1.5115 0.4845,2.5969 0.9363,3.2559 0.6361,0.9275 1.4902,1.461 2.5603,1.5999 0.6894,0.0904 1.3589,-0.0213 2.0095,-0.3348 0.6502,-0.3118 1.18,-0.8158 1.5891,-1.5097 0.4093,-0.6945 0.6823,-1.5619 0.8169,-2.6 0.2205,-1.6985 0.015,-3.0245 -0.6177,-3.9798 -0.6332,-0.955 -1.567,-1.5344 -2.8037,-1.7388 l -0.4757,2.7153 c 0.6803,0.2064 1.1464,0.5236 1.4015,0.9471 0.2542,0.4232 0.3313,1.0196 0.231,1.7895 -0.1026,0.7929 -0.3464,1.3935 -0.7308,1.7994 -0.2463,0.262 -0.5456,0.3711 -0.8954,0.3249 -0.3201,-0.0417 -0.5769,-0.2126 -0.7691,-0.5131 -0.2446,-0.3827 -0.4368,-1.258 -0.5774,-2.6266 -0.1412,-1.3685 -0.3379,-2.3944 -0.5902,-3.075 -0.2525,-0.6803 -0.6457,-1.2376 -1.18,-1.6733 -0.5352,-0.4351 -1.23,-0.7081 -2.0846,-0.8203 -0.7753,-0.1004 -1.529,0.021 -2.2618,0.3631 -0.7325,0.343 -1.3147,0.8858 -1.7461,1.6299 -0.4306,0.7452 -0.7229,1.7056 -0.8762,2.8794 -0.2214,1.7099 0.002,3.0751 0.6732,4.0936 0.6707,1.0207 1.7515,1.7163 3.2417,2.0916" style="fill:#006dad;fill-opacity:1;fill-rule:evenodd;stroke:none" id="path64"/><path d="m 397.5797,461.4831 13.6395,0.0604 0.0125,-2.7544 -13.6395,-0.0601 z" style="fill:#006dad;fill-opacity:1;fill-rule:evenodd;stroke:none" id="path66"/><path d="m 397.103,450.0292 11.2495,-1.3122 0.4689,4.0179 2.2909,-0.2676 -1.2554,-10.7595 -2.2904,0.2673 0.468,4.0082 -11.2504,1.3119 z" style="fill:#006dad;fill-opacity:1;fill-rule:evenodd;stroke:none" id="path68"/><path d="m 394.3602,435.09 5.5238,-1.5638 8.9626,2.6555 -0.8793,-3.1071 -6.0678,-1.6186 4.3356,-4.4969 -0.8646,-3.052 -6.2518,6.9829 -5.5063,1.5601 z" style="fill:#006dad;fill-opacity:1;fill-rule:evenodd;stroke:none" id="path70"/><path d="m 301.7174,552.9824 c -51.4599,0 -93.1892,-41.701 -93.1892,-93.1258 0,-51.4706 41.7293,-93.1955 93.1892,-93.1955 51.4772,0 93.2,41.7249 93.2,93.1955 0,51.4248 -41.7228,93.1258 -93.2,93.1258 z m 0,-184.9924 c -50.7274,0 -91.8604,41.1293 -91.8604,91.8658 0,50.6911 41.133,91.7983 91.8604,91.7983 50.7444,0 91.8715,-41.1072 91.8715,-91.7983 0,-50.7365 -41.1271,-91.8658 -91.8715,-91.8658" style="fill:#006dad;fill-opacity:1;fill-rule:evenodd;stroke:none" id="path72"/><path d="m 341.9478,364.1338 c 0.6208,0.271 0.9134,1.3393 -0.0345,3.3715 -0.2515,0.5386 -1.7008,1.5293 -1.6283,-0.0797 0.2861,-1.3714 0.4553,-1.4706 0.5891,-2.1829 0,0 0.4422,-1.3836 1.0737,-1.1089" style="fill:#006dad;fill-opacity:1;fill-rule:evenodd;stroke:none" id="path74"/><path d="m 338.4502,361.5094 c -0.466,-2.0108 0.2789,-3.8091 1.2163,-3.5257 0.9428,0.2781 0.8674,1.7184 0.3643,3.0688 -0.2172,0.5879 -1.1092,2.4715 -1.5806,0.4569" style="fill:#006dad;fill-opacity:1;fill-rule:evenodd;stroke:none" id="path76"/><path d="m 352.5523,370.3544 c -0.91,0.5601 -1.8854,-0.4535 -2.035,-0.8025 -0.1446,-0.3563 -1.4247,-1.1888 -1.304,0.8858 0.0105,1.5007 1.5421,2.9892 0.466,3.9266 -1.0715,0.9263 -2.5843,-0.025 -2.7377,-0.9587 -0.1522,-0.9286 0.3861,-0.5973 1.1121,-0.5281 0.316,0.0831 0.4065,-0.9017 0.3135,-1.6299 -0.0887,-0.7228 -0.364,-0.7835 -0.5332,0.0938 -0.182,0.87 -1.3125,0.5916 -1.789,0.1843 -0.4631,-0.404 -0.9371,0.216 -0.5252,1.095 0.233,1.04 -1.8046,2.7269 -2.3431,1.4389 0,0 -0.1208,-0.8686 0.8895,-0.9998 0.7095,-0.2568 -0.5006,-2.9781 -1.2101,-2.0305 -0.2438,0.328 -1.8324,2.4596 -1.2538,0.0675 0.5732,-2.3885 1.9037,-5.3986 2.0004,-5.6857 0.1043,-0.2835 0.1125,-0.6308 -0.1312,-0.8451 -0.2381,-0.225 -4.5873,-2.6084 -2.3936,-2.906 1.156,0.14 1.8799,0.739 2.4097,1.4334 0.5216,0.6982 4.9142,3.3931 5.5219,4.0026 0.6024,0.6219 2.3006,1.43 1.7754,0.3438 -0.5298,-0.3951 0.2063,-1.4332 1.9737,0.2356 0.5865,0.5247 1.1463,1.9012 -0.2063,2.679 z m -6.6566,-2.787 c 0.1493,-0.7441 -0.5494,-1.6195 -0.9137,-1.3556 -0.3665,0.2818 -0.7449,1.4868 -1.0842,3.0796 -0.1826,1.4902 1.5823,1.1146 1.3147,0.2177 -0.0213,-0.2443 -0.3589,-0.7707 -0.2279,-1.146 0.1341,-0.383 0.7549,-0.0482 0.9111,-0.7957 z m 1.4748,-0.5602 c -0.7877,-0.7846 -0.6607,0.4077 -0.5057,0.7319 0.1551,0.3206 0.0913,0.9942 -0.5094,1.0262 -0.5947,0.0227 -0.3129,0.7404 0.1851,1.6883 0.4873,0.9533 0.8459,0.0301 0.7546,-0.3169 -0.2993,-1.1041 -0.0317,-1.1341 0.8087,-1.2404 0.654,-0.1188 0.0621,-1.0988 -0.7333,-1.8891" style="fill:#006dad;fill-opacity:1;fill-rule:evenodd;stroke:none" id="path78"/><path d="m 349.5986,362.1455 c -0.9188,-0.4322 -1.1214,-0.0229 -0.0939,1.3272 1.2535,1.7541 0.4847,2.4236 -1.082,1.4704 -0.7095,-0.3348 -0.8909,-0.425 -1.7591,-1.1427 -0.5519,-0.4555 -0.9108,-0.5757 -1.9095,-1.8374 -1.489,-2.1617 1.4089,-1.3144 1.6606,-0.434 0.8113,1.7348 1.6469,-0.0354 1.4111,-0.5689 -0.1177,-0.4411 -1.3686,-0.9921 -2.2706,-2.9146 -0.9,-1.9154 1.4672,-2.3068 4.1451,-1.1659 1.2263,0.5757 1.6365,2.454 1.2592,3.0725 -0.3785,0.6182 -0.614,1.3572 0.1335,1.6778 2.5736,0.879 0.0612,1.7895 -1.4944,0.5156 z m -0.4207,-3.6799 c 0,0 -0.0454,-0.4697 -0.7787,-0.6701 -1.4947,-0.2109 -1.2322,0.6327 -0.032,1.6977 1.2047,1.0683 1.0168,-0.6078 0.8107,-1.0276" style="fill:#006dad;fill-opacity:1;fill-rule:evenodd;stroke:none" id="path80"/><path d="m 301.7174,550.26 c -49.9566,0 -90.466,-40.4824 -90.466,-90.4042 0,-49.9658 40.5094,-90.4714 90.466,-90.4714 49.9728,0 90.4768,40.5056 90.4768,90.4714 0,49.9218 -40.504,90.4042 -90.4768,90.4042 z M 228.509,448.2031 c -9.972,9.9632 0.8932,22.4326 0.8932,22.4326 l 20.0446,19.9162 22.396,-22.396 -5.0479,-5.0471 -11.5285,11.5265 -6.5461,-6.5386 c 0,0 -9.2146,-8.6545 -1.203,-16.6507 l 11.8012,-11.7998 20.0341,20.0296 10.967,-10.9542 -31.1675,-31.1576 z m 83.3584,-61.685 c -9.9459,-9.9595 -21.524,0.5403 -21.524,0.5403 l -25.4747,26.1059 31.0142,30.7273 5.1037,-5.1046 -20.0296,-20.0288 12.6278,-12.5889 c 0,0 7.6465,-9.254 15.6399,-1.2526 l 18.1046,18.1046 -72.8416,72.7477 36.4652,36.4468 c 9.9884,9.9921 21.5322,-0.4669 21.5322,-0.4669 l 30.9679,-30.8781 -31.7514,-31.7511 -4.9893,4.9887 20.7604,20.7587 -18.0283,18.0175 c 0,0 -7.8829,8.9635 -15.9058,0.9406 l -18.3674,-18.3521 72.8337,-72.8116 z m 41.6778,40.9876 -36.4002,36.3988 5.0459,5.0454 25.4401,-25.4339 2.9299,2.8846 6.5308,6.531 c 6.0429,6.0418 -2.5852,14.927 -2.5852,14.927 l -16.8599,16.8559 10.942,10.9375 25.0962,-25.0764 c 0,0 11.2989,-11.5711 3.7678,-19.09 z" style="fill:#006dad;fill-opacity:1;fill-rule:evenodd;stroke:none" id="path82"/><g id="g84" transform="scale(0.63,1)"><path d="M 390.8526,385.7579 368.4685,366.8134" style="fill:none;stroke:#006dad;stroke-width:0.3402;stroke-linecap:butt;stroke-linejoin:miter;stroke-miterlimit:22.9256;stroke-dasharray:none;stroke-opacity:1" id="path86"/></g><g id="g88" transform="scale(0.63,1)"><path d="M 385.3332,388.4794 361.2674,370.406" style="fill:none;stroke:#006dad;stroke-width:0.3402;stroke-linecap:butt;stroke-linejoin:miter;stroke-miterlimit:22.9256;stroke-dasharray:none;stroke-opacity:1" id="path90"/></g><g id="g92" transform="scale(0.63,1)"><path d="M 380.2932,391.504 354.2221,374.2985" style="fill:none;stroke:#006dad;stroke-width:0.3402;stroke-linecap:butt;stroke-linejoin:miter;stroke-miterlimit:22.9256;stroke-dasharray:none;stroke-opacity:1" id="path94"/></g><g id="g96" transform="scale(0.63,1)"><path d="M 374.8935,394.6028 347.4074,378.4669" style="fill:none;stroke:#006dad;stroke-width:0.3402;stroke-linecap:butt;stroke-linejoin:miter;stroke-miterlimit:22.9256;stroke-dasharray:none;stroke-opacity:1" id="path98"/></g><g id="g100" transform="scale(0.63,1)"><path d="M 369.9731,397.7779 340.8993,382.877" style="fill:none;stroke:#006dad;stroke-width:0.3402;stroke-linecap:butt;stroke-linejoin:miter;stroke-miterlimit:22.9256;stroke-dasharray:none;stroke-opacity:1" id="path102"/></g><g id="g104" transform="scale(0.63,1)"><path d="M 365.0528,401.2563 334.7631,387.4878" style="fill:none;stroke:#006dad;stroke-width:0.3402;stroke-linecap:butt;stroke-linejoin:miter;stroke-miterlimit:22.9256;stroke-dasharray:none;stroke-opacity:1" id="path106"/></g><g id="g108" transform="scale(0.63,1)"><path d="M 360.733,404.7333 329.0511,392.2551" style="fill:none;stroke:#006dad;stroke-width:0.3402;stroke-linecap:butt;stroke-linejoin:miter;stroke-miterlimit:22.9256;stroke-dasharray:none;stroke-opacity:1" id="path110"/></g><g id="g112" transform="scale(0.63,1)"><path d="m 356.2934,408.3622 -32.4879,-11.23" style="fill:none;stroke:#006dad;stroke-width:0.3402;stroke-linecap:butt;stroke-linejoin:miter;stroke-miterlimit:22.9256;stroke-dasharray:none;stroke-opacity:1" id="path114"/></g><g id="g116" transform="scale(0.63,1)"><path d="M 353.0537,412.4443 319.0569,402.071" style="fill:none;stroke:#006dad;stroke-width:0.3402;stroke-linecap:butt;stroke-linejoin:miter;stroke-miterlimit:22.9256;stroke-dasharray:none;stroke-opacity:1" id="path118"/></g><g id="g120" transform="scale(0.63,1)"><path d="m 314.8058,407.0225 34.8883,9.0505 z" style="fill:none;stroke:#006dad;stroke-width:0.3402;stroke-linecap:butt;stroke-linejoin:miter;stroke-miterlimit:22.9256;stroke-dasharray:none;stroke-opacity:1" id="path122"/></g><g id="g124" transform="scale(0.63,1)"><path d="m 566.2287,385.7579 22.3841,-18.9445" style="fill:none;stroke:#006dad;stroke-width:0.3402;stroke-linecap:butt;stroke-linejoin:miter;stroke-miterlimit:22.9256;stroke-dasharray:none;stroke-opacity:1" id="path126"/></g><g id="g128" transform="scale(0.63,1)"><path d="M 571.748,388.4794 595.8136,370.406" style="fill:none;stroke:#006dad;stroke-width:0.3402;stroke-linecap:butt;stroke-linejoin:miter;stroke-miterlimit:22.9256;stroke-dasharray:none;stroke-opacity:1" id="path130"/></g><g id="g132" transform="scale(0.63,1)"><path d="m 576.7877,391.504 26.0711,-17.2055" style="fill:none;stroke:#006dad;stroke-width:0.3402;stroke-linecap:butt;stroke-linejoin:miter;stroke-miterlimit:22.9256;stroke-dasharray:none;stroke-opacity:1" id="path134"/></g><g id="g136" transform="scale(0.63,1)"><path d="m 582.1877,394.6028 27.4856,-16.1359" style="fill:none;stroke:#006dad;stroke-width:0.3402;stroke-linecap:butt;stroke-linejoin:miter;stroke-miterlimit:22.9256;stroke-dasharray:none;stroke-opacity:1" id="path138"/></g><g id="g140" transform="scale(0.63,1)"><path d="M 587.1081,397.7779 616.1814,382.877" style="fill:none;stroke:#006dad;stroke-width:0.3402;stroke-linecap:butt;stroke-linejoin:miter;stroke-miterlimit:22.9256;stroke-dasharray:none;stroke-opacity:1" id="path142"/></g><g id="g144" transform="scale(0.63,1)"><path d="m 592.0282,401.2563 30.2905,-13.7685" style="fill:none;stroke:#006dad;stroke-width:0.3402;stroke-linecap:butt;stroke-linejoin:miter;stroke-miterlimit:22.9256;stroke-dasharray:none;stroke-opacity:1" id="path146"/></g><g id="g148" transform="scale(0.63,1)"><path d="m 596.3482,404.7333 31.6823,-12.4782" style="fill:none;stroke:#006dad;stroke-width:0.3402;stroke-linecap:butt;stroke-linejoin:miter;stroke-miterlimit:22.9256;stroke-dasharray:none;stroke-opacity:1" id="path150"/></g><g id="g152" transform="scale(0.63,1)"><path d="m 600.7878,408.3622 32.4879,-11.23" style="fill:none;stroke:#006dad;stroke-width:0.3402;stroke-linecap:butt;stroke-linejoin:miter;stroke-miterlimit:22.9256;stroke-dasharray:none;stroke-opacity:1" id="path154"/></g><g id="g156" transform="scale(0.63,1)"><path d="M 604.0276,412.4443 638.0243,402.071" style="fill:none;stroke:#006dad;stroke-width:0.3402;stroke-linecap:butt;stroke-linejoin:miter;stroke-miterlimit:22.9256;stroke-dasharray:none;stroke-opacity:1" id="path158"/></g><g id="g160" transform="scale(0.63,1)"><path d="m 642.2754,407.0225 -34.8882,9.0505 z" style="fill:none;stroke:#006dad;stroke-width:0.3402;stroke-linecap:butt;stroke-linejoin:miter;stroke-miterlimit:22.9256;stroke-dasharray:none;stroke-opacity:1" id="path162"/></g><path d="m 211.9725,277.2471 c -4.7245,1.8924 -5.9363,2.4363 -4.3956,4.7556 1.5326,2.2964 9.5544,5.7496 3.952,11.0226 -3.077,2.1971 -9.6624,1.7132 -12.7431,0.0671 0.3651,5.785 1.4981,12.4243 -4.1718,15.0254 -6.6966,3.0758 -5.116,-0.5939 -5.116,-3.1221 0,-2.5228 -0.3738,-14.6583 -0.1499,-15.865 -1.4307,-0.877 -8.0184,-5.2608 -9.7812,-7.9061 -1.7516,-2.6203 -3.5119,-3.7278 -4.6078,-2.1917 -0.744,1.0403 -4.3968,7.6847 -3.9529,-2.6328 0.5423,-10.9905 8.5607,-13.4144 8.5607,-8.1292 0,5.2767 -0.6557,5.498 0.8815,7.2414 1.5424,1.7577 9.2268,9.8957 9.0034,4.1711 0.6645,-6.3555 -0.6548,-6.5823 -2.1954,-8.1133 -1.5333,-1.5435 -4.1014,-4.8319 2.4843,-5.934 0,-0.6608 -0.0655,-13.955 -0.0655,-16.5807 0,-2.1439 3.1813,-8.3452 6.0285,-2.95 0.4376,1.1321 0.3945,2.8278 0.5564,5.2534 0.6616,14.7061 -1.4227,18.4538 2.9679,19.2189 9.775,0 18.2364,3.0796 12.7445,6.6694 z m -11.0951,4.8174 c 0,0 -1.3155,-1.0471 -2.7428,0.1455 -2.1988,3.742 2.1892,5.7211 2.1892,5.7211 3.0785,1.1996 7.4727,-0.216 0.5536,-5.8666" style="fill:#006dad;fill-opacity:1;fill-rule:evenodd;stroke:none" id="path164"/><path d="m 259.4426,303.6047 c -0.2143,3.9493 -2.7436,6.8641 -5.4189,0.055 0,0 -0.1846,-2.1866 -2.7074,-2.0891 -2.5223,0.1171 -12.5578,1.586 -7.7298,-5.0015 1.5398,-1.8606 5.5389,-1.1395 6.9588,-1.1395 1.4337,0 4.5059,-0.4413 1.2129,-4.7219 -1.366,-1.7808 -3.2326,-5.3635 -5.0576,-8.1539 -3.5084,-3.9266 -4.7112,-6.9741 -2.082,-7.4951 4.0657,0.1171 7.7998,3.6731 12.1901,16.416 0,0 1.4275,5.6506 5.7135,5.9766 4.0663,0.6536 12.6383,3.471 8.6581,6.9137 -1.9836,0.6732 -4.8123,-0.4856 -5.9153,-1.251 -1.1021,-0.7582 -4.8362,-1.5981 -5.8224,0.4907" style="fill:#006dad;fill-opacity:1;fill-rule:evenodd;stroke:none" id="path166"/><path d="m 239.9428,273.7902 c -0.0459,2.1935 -3.2726,11.4194 -5.6902,1.3235 -2.4098,-10.103 -1.4273,-13.2265 0.7682,-15.7479 2.1951,-2.5356 6.5239,-3.6005 6.4139,1.6583 -0.11,5.2784 -1.451,10.569 -1.4919,12.7661" style="fill:#006dad;fill-opacity:1;fill-rule:evenodd;stroke:none" id="path168"/><path d="m 252.3892,272.2842 c 0.1655,0.7424 1.2302,1.2067 1.6654,1.6353 1.7197,1.6852 1.0958,3.4781 -3.2826,2.5038 -5.1647,-1.9599 -3.958,-5.7053 -1.7574,-4.9345 0,0 3.075,0.1043 1.6406,-1.7561 -1.4201,-1.8695 -0.7715,-3.471 4.396,-3.0317 0,0 5.4136,-0.5139 0,-3.2334 0,0 -2.8528,-0.8825 -4.396,-1.1022 -1.5361,-0.2196 -3.4035,-3.1767 0.6611,-3.0721 4.0663,0.115 5.9408,0.875 5.9408,-2.5305 -0.9187,-11.5912 4.2001,-10.4202 4.1621,-4.8246 0,0 -0.4393,5.7073 -0.2199,7.899 0.2199,2.204 1.7577,3.4158 3.5147,2.8667 5.1672,-1.3164 8.7927,4.6086 1.4326,4.7254 0,0 -5.436,0 -2.0875,1.4264 4.4757,1.4456 6.6983,4.1709 1.9783,4.6119 0,0 -4.2012,0.2197 -0.7973,4.1692 1.972,2.1918 -1.4015,0.9904 -1.8363,2.4185 -0.4652,0.9533 1.3102,1.3096 2.5228,1.7507 1.2121,0.4485 20.3159,7.2556 18.3447,-4.0592 -1.4939,-11.2246 -2.8845,-15.431 -3.8458,-18.3385 -1.2118,-1.8677 -2.4244,-5.8719 -5.0575,-2.5781 -3.3673,3.1788 -4.775,-0.4464 -1.4193,-4.2363 3.9537,-3.0742 6.1888,-4.3906 9.373,0.551 3.1898,4.9414 7.8613,23.0108 7.2071,31.1913 0,2.8525 -2.3879,6.1518 -7.4702,6.0242 -3.9549,-0.4484 -16.3612,-3.1717 -20.6461,-5.4734 -4.2809,-2.3083 -3.6255,-3.081 -2.3026,-4.6171 0.434,-2.7377 -1.2121,-6.3008 -3.1841,-7.5693 -1.6166,-1.0401 -4.7821,-3.2993 -4.5366,-0.4164" style="fill:#006dad;fill-opacity:1;fill-rule:evenodd;stroke:none" id="path170"/><path d="m 334.965,299.8823 c 0,2.0871 -4.8246,11.9684 -7.2448,5.932 0.1114,-6.4777 0,-16.8003 0,-18.7724 0,-1.9845 0.4419,-3.7403 -2.6374,-4.8424 -3.069,-1.09 -20.3167,-2.3089 -18.2358,-7.3622 3.6377,-4.1689 7.4761,-2.082 9.235,-1.3076 1.7558,0.762 10.6529,5.6982 8.8962,0.3297 -3.1901,-4.6106 -9.117,-10.8808 -10.3297,-12.4118 -1.2005,-1.5361 -1.9712,-6.4848 5.1676,-2.865 7.1396,3.8503 10.5443,12.4101 10.5443,15.3811 0,2.8777 1.5432,5.2591 4.2806,5.491 3.7278,0.3296 17.6828,-1.3218 18.7787,5.9391 0.1097,3.5085 -2.3089,3.2831 -6.5824,1.6481 -4.286,-1.6481 -13.5127,-3.2885 -13.5127,0.3243 0,4.61 1.6404,12.5161 1.6404,12.5161" style="fill:#006dad;fill-opacity:1;fill-rule:evenodd;stroke:none" id="path172"/><path d="m 342.2149,265.8382 c 1.8609,-2.4877 9.1168,-15.0517 13.5195,-14.2736 4.3827,0.7671 5.5956,6.6988 -0.4481,11.0897 -6.0373,4.396 -13.1576,9.6015 -14.0329,7.5195 -0.8762,-2.0889 0.3055,-3.4478 0.9615,-4.3356" style="fill:#006dad;fill-opacity:1;fill-rule:evenodd;stroke:none" id="path174"/><path d="m 391.6273,280.6914 c 2.2218,0.1667 4.2738,3.1417 3.5631,10.4395 -0.1956,1.9227 -3.5631,6.5522 -5.1063,1.5009 -0.5998,-4.5252 -0.1894,-5.0213 -0.5448,-7.3548 0,0 -0.1409,-4.7432 2.088,-4.5856" style="fill:#006dad;fill-opacity:1;fill-rule:evenodd;stroke:none" id="path176"/><path d="m 378.0329,276.4125 c -3.6233,-5.6877 -3.2927,-12.0376 -0.0851,-12.1921 3.2154,-0.1698 4.5315,4.3626 4.4456,9.0579 -0.0249,2.0605 -0.7342,8.8146 -4.3605,3.1342" style="fill:#006dad;fill-opacity:1;fill-rule:evenodd;stroke:none" id="path178"/><path d="m 431.0478,288.358 c -2.1934,2.7128 -6.3076,0.6185 -7.1404,-0.2815 -0.8201,-0.9127 -5.6761,-2.1138 -3.0368,4.1514 1.6407,4.6032 7.9838,7.5373 5.6815,11.5789 -2.3142,4.0292 -7.9954,2.755 -9.4776,0.0233 -1.4823,-2.706 0.5448,-2.2595 2.8536,-2.8281 1.0647,-0.0851 0.2806,-3.2264 -0.7903,-5.3635 -1.0712,-2.1418 -1.9775,-2.0197 -1.5619,0.8683 0.4048,2.8848 -3.3789,3.2513 -5.2775,2.5035 -1.8975,-0.7387 -2.67,1.6923 -0.4465,3.9195 1.849,2.9642 -2.6028,10.3793 -5.6523,7.0004 0,0 -1.3102,-2.5548 1.6535,-4.0362 1.8921,-1.5611 -4.7761,-8.6394 -5.927,-4.94 -0.4039,1.2669 -2.9696,9.5503 -3.7961,1.5665 -0.8204,-7.9909 0,-18.7002 0,-19.6923 0,-0.9851 -0.3311,-2.05 -1.3173,-2.4608 -0.9853,-0.4218 -16.9662,-3.0495 -10.5372,-6.3487 3.7051,-0.8201 6.5885,0.2497 8.9762,1.8127 2.3884,1.5662 18.8282,5.0993 21.3576,6.336 2.5285,1.2439 8.6207,1.8975 5.8224,-0.8648 -2.0571,-0.6466 -0.9057,-4.6508 6.3377,-1.4315 2.3876,0.987 5.6089,4.6103 2.2784,8.4869 z m -23.5252,-1.366 c -0.3306,-2.4661 -3.4535,-4.4028 -4.2852,-3.1717 -0.8215,1.2371 -0.6627,5.3634 0,10.6297 1.0763,4.7837 6.0976,1.7342 4.2852,-0.7461 -0.3306,-0.7424 -1.935,-1.9772 -1.935,-3.2885 0,-1.3167 2.2655,-0.955 1.935,-3.4234 z m 3.9492,-3.3361 c -3.2876,-1.563 -1.6044,1.9772 -0.7841,2.8029 0.8269,0.8274 1.3652,2.9642 -0.447,3.7049 -1.8119,0.7353 -0.1641,2.6328 2.3882,5.0267 2.5531,2.3884 2.6453,-0.838 1.9842,-1.8108 -2.1064,-3.0742 -1.3235,-3.4676 1.1512,-4.7027 1.8921,-1.0664 -0.9924,-3.4551 -4.2925,-5.021" style="fill:#006dad;fill-opacity:1;fill-rule:evenodd;stroke:none" id="path180"/><path d="m 413.0453,266.2724 c -3.3001,-0.3367 -3.4648,1.1569 1.1517,4.201 5.7674,4.0413 4.1142,6.9242 -1.7339,5.6928 -2.5521,-0.2622 -3.214,-0.3297 -6.6609,-1.6036 -2.1866,-0.8078 -3.4296,-0.7954 -7.8744,-3.5932 -6.925,-5.0337 2.9211,-5.5972 4.6469,-3.1362 4.3721,4.4648 5.0337,-1.8975 3.7111,-3.2865 -0.8274,-1.2384 -5.2784,-1.5681 -10.1392,-6.5047 -4.8496,-4.9342 2.0196,-8.6995 11.4981,-8.113 4.4082,0.4536 7.7032,5.8062 7.2131,8.113 -0.5023,2.3035 -0.4164,4.8566 2.2167,5.0216 8.9024,-0.085 2.1429,5.4431 -4.0292,3.2088 z m -5.2781,-10.8632 c 0,0 -0.6611,-1.4065 -3.1221,-1.2347 -4.8611,0.985 -3.1354,3.2938 1.7266,5.2639 4.8611,1.9774 2.4726,-2.9625 1.3955,-4.0292" style="fill:#006dad;fill-opacity:1;fill-rule:evenodd;stroke:none" id="path182"/></g></svg>