<svg xmlns="http://www.w3.org/2000/svg" version="1.0" viewBox="0 0 346 346" style="&#10;    fill: rgb(49, 46, 129);&#10;"><path d="M200 96.6c0 16.6.5 32.6 1 35.5 4.1 22.1 24.9 37 47.1 33.9 17.1-2.4 31.7-16.4 34.8-33.4.6-3.5 1.1-18.7 1.1-36V66.5l-13.8 13.8L256.5 94h-29l-13.7-13.7L200 66.5zm29.1 20.2c4.9 4 1.5 12.2-5.1 12.2-3.4 0-6.3-3.2-6.3-7 0-6.1 6.5-9.1 11.4-5.2m35 0c4.9 4 1.5 12.2-5.1 12.2-3.4 0-6.3-3.2-6.3-7 0-6.1 6.5-9.1 11.4-5.2"/><path d="M68.5 95.6c-4.6 2.4-6.4 4.4-7.7 8.6-2.4 8.2 3.3 16.4 12.4 17.5 5.3.7 8.5 2.3 11.8 5.8l2.5 2.7.5 62.1.5 62.2 2.8 5.8c1.9 3.8 4.4 6.9 7.4 9.2 8.2 6.3 10 6.5 55.5 6.5h40.9l2.6-2.6c2.3-2.3 2.5-3.1 2.1-9.2-.6-12.1-5.7-16.2-19.9-16.2h-8.2l27.9-20.9 27.9-21 .5 33.1.5 33 2.4 1.9c1.9 1.6 4 1.9 11.3 1.9 8.1 0 9.1-.2 11.3-2.5l2.5-2.4V179l-4.2.7c-6.3 1.1-17.5.8-23.8-.7-8.9-2-16.9-6.8-25.1-15-7.9-7.8-11-12.7-14-22l-1.7-5.5-6.9.2c-22.4.8-46.1 13.2-59.9 31.4l-3.9 5-.5-23.3-.5-23.3-3.6-7.5c-6.2-13-16.9-21.3-30.8-24-7.2-1.3-9.1-1.3-12.6.6"/></svg>