<svg version="1.1" xmlns="http://www.w3.org/2000/svg" xmlns:xlink="http://www.w3.org/1999/xlink" width="24" height="24" viewBox="0,0,256,256"><g transform="translate(29.44,29.44) scale(0.77,0.77)"><g fill="#e8ebfa" fill-rule="nonzero" stroke="none" stroke-width="1" stroke-linecap="butt" stroke-linejoin="miter" stroke-miterlimit="10" stroke-dasharray="" stroke-dashoffset="0" font-family="none" font-weight="none" font-size="none" text-anchor="none" style="mix-blend-mode: normal"><path d="M-38.23377,294.23377v-332.46753h332.46753v332.46753z" id="bgRectangle"></path></g><g fill="none" fill-rule="nonzero" stroke="#312e81" stroke-width="2" stroke-linecap="round" stroke-linejoin="round" stroke-miterlimit="10" stroke-dasharray="" stroke-dashoffset="0" font-family="none" font-weight="none" font-size="none" text-anchor="none" style="mix-blend-mode: normal"><g transform="translate(-0.00079,0.00079) scale(10.66667,10.66667)"><path d="M13.4,2h-7.4c-1.10457,0 -2,0.89543 -2,2v16c0,1.10457 0.89543,2 2,2h12c1.10457,0 2,-0.89543 2,-2v-7.4"></path><path d="M2,6h4"></path><path d="M2,10h4"></path><path d="M2,14h4"></path><path d="M2,18h4"></path><path d="M21.378,5.626c0.82953,-0.82953 0.82953,-2.17447 0,-3.004c-0.82953,-0.82953 -2.17447,-0.82953 -3.004,0l-5.01,5.012c-0.23775,0.23762 -0.41178,0.53133 -0.506,0.854l-0.837,2.87c-0.05112,0.17526 -0.00265,0.36446 0.12645,0.49355c0.12909,0.12909 0.31829,0.17757 0.49355,0.12645l2.87,-0.837c0.32267,-0.09422 0.61638,-0.26825 0.854,-0.506z"></path></g></g></g></svg>